{"title":"Bleeder [1999] - Greek embeded subs by jackalxt660x","uid":10986815,"size":1225137726,"categoryP":"video","categoryS":"movies","magnet":"?xt=urn:btih:aeaddbe844e4133db5918111adaf7b963e58e494&amp;dn=Bleeder+%5B1999%5D+-+Greek+embeded+subs+by+jackalxt660x&amp;tr=udp%3A%2F%2Ftracker.openbittorrent.com%3A80&amp;tr=udp%3A%2F%2Fopen.demonii.com%3A1337&amp;tr=udp%3A%2F%2Ftracker.coppersurfer.tk%3A6969&amp;tr=udp%3A%2F%2Fexodus.desync.com%3A6969","seeders":1,"leechers":0,"uploader":"jackalxt660x","files":4,"time":1409931642,"description":"Format                                   : AVI\nFormat/Info                              : Audio Video Interleave\nFormat profile                           : OpenDML\nFile size                                : 1.14 GiB\nDuration                                 : 1h 33mn\nOverall bit rate                         : 1 745 Kbps\nWriting application                      : MEncoder SVN-r33883(20110719-gcc4.5.2)\nWriting library                          : MPlayer\n\nVideo\nID                                       : 0\nFormat                                   : MPEG-4 Visual\nFormat profile                           : Advanced Simple@L5\nFormat settings, BVOP                    : 2\nFormat settings, QPel                    : No\nFormat settings, GMC                     : No warppoints\nFormat settings, Matrix                  : Default (H.263)\nCodec ID                                 : XVID\nCodec ID/Hint                            : XviD\nDuration                                 : 1h 33mn\nBit rate                                 : 1 601 Kbps\nWidth                                    : 960 pixels\nHeight                                   : 720 pixels\nDisplay aspect ratio                     : 4:3\nFrame rate                               : 30.000 fps\nColor space                              : YUV\nChroma subsampling                       : 4:2:0\nBit depth                                : 8 bits\nScan type                                : Progressive\nCompression mode                         : Lossy\nBits/(Pixel*Frame)                       : 0.077\nStream size                              : 1.05 GiB (92%)\nWriting library                          : XviD 1.2.1 (UTC 2008-12-04)\n\nAudio\nID                                       : 1\nFormat                                   : MPEG Audio\nFormat version                           : Version 1\nFormat profile                           : Layer 3\nMode                                     : Joint stereo\nMode extension                           : MS Stereo\nCodec ID                                 : 55\nCodec ID/Hint                            : MP3\nDuration                                 : 1h 33mn\nBit rate mode                            : Constant\nBit rate                                 : 128 Kbps\nChannel(s)                               : 2 channels\nSampling rate                            : 44.1 KHz\nCompression mode                         : Lossy\nDelay relative to video                  : 33ms\nStream size                              : 85.7 MiB (7%)\nAlignment                                : Aligned on interleaves\nInterleave, duration                     : 26 ms (0.78 video frame)\nInterleave, preload duration             : 522 ms\n","torrent":{"xt":"urn:btih:aeaddbe844e4133db5918111adaf7b963e58e494","amp;dn":"Bleeder+%5B1999%5D+-+Greek+embeded+subs+by+jackalxt660x","amp;tr":["udp%3A%2F%2Ftracker.openbittorrent.com%3A80","udp%3A%2F%2Fopen.demonii.com%3A1337","udp%3A%2F%2Ftracker.coppersurfer.tk%3A6969","udp%3A%2F%2Fexodus.desync.com%3A6969"],"infoHash":"aeaddbe844e4133db5918111adaf7b963e58e494","infoHashBuffer":{"type":"Buffer","data":[174,173,219,232,68,228,19,61,181,145,129,17,173,175,123,150,62,88,228,148]},"announce":[],"urlList":[]}}